STARTFONT 2.1
FONT -FontForge-Helvetica Neue-Book-R-Normal--36-350-75-75-P-188-ISO10646-1
SIZE 35 75 75
FONTBOUNDINGBOX 34 37 -1 -8
COMMENT "Generated by fontforge, http://fontforge.sourceforge.net"
COMMENT "Copyright (c) 1981, 1982, 1983, 1989 and 1993, Linotype Library GmbH or its affiliated Linotype-Hell companies. All rights reserved."
COMMENT ""
COMMENT "The digitally encoded machine readable software for producing the Typefaces licensed to you is now the property of Heidelberger Druckmaschinen AG and its licensors, and may not be reproduced, used, displayed, modified, disclosed or transferred without the express written approval of Heidelberger Druckmaschinen AG."
COMMENT ""
COMMENT "Copyright (c) 1988, 1990, 1993 Adobe Systems Incorporated. All Rights Reserved."
STARTPROPERTIES 39
FOUNDRY "FontForge"
FAMILY_NAME "Helvetica Neue"
WEIGHT_NAME "Book"
SLANT "R"
SETWIDTH_NAME "Normal"
ADD_STYLE_NAME ""
PIXEL_SIZE 36
POINT_SIZE 350
RESOLUTION_X 75
RESOLUTION_Y 75
SPACING "P"
AVERAGE_WIDTH 188
CHARSET_REGISTRY "ISO10646"
CHARSET_ENCODING "1"
FONTNAME_REGISTRY ""
CHARSET_COLLECTIONS "ISO8859-5 ISO10646-1"
FONT_NAME "HelveticaNeue"
FACE_NAME "Helvetica Neue"
COPYRIGHT "Copyright (c) 1981, 1982, 1983, 1989 and 1993, Linotype Library GmbH or its affiliated Linotype-Hell companies. All rights reserved."
FONT_VERSION "6.1d8e1"
FONT_ASCENT 29
FONT_DESCENT 7
UNDERLINE_POSITION -4
UNDERLINE_THICKNESS 2
X_HEIGHT 18
CAP_HEIGHT 25
RAW_ASCENT 800
RAW_DESCENT 200
NORM_SPACE 10
RELATIVE_WEIGHT 40
RELATIVE_SETWIDTH 50
SUPERSCRIPT_X 0
SUPERSCRIPT_Y 10
SUPERSCRIPT_SIZE 7
SUBSCRIPT_X 0
SUBSCRIPT_Y 10
SUBSCRIPT_SIZE 7
AVG_LOWERCASE_WIDTH 178
AVG_UPPERCASE_WIDTH 237
ENDPROPERTIES
CHARS 95
STARTCHAR space
ENCODING 32
SWIDTH 278 0
DWIDTH 10 0
BBX 1 1 0 0
BITMAP
00
ENDCHAR
STARTCHAR exclam
ENCODING 33
SWIDTH 259 0
DWIDTH 9 0
BBX 4 26 3 0
BITMAP
E0
E0
E0
E0
E0
E0
E0
E0
E0
E0
E0
E0
E0
E0
E0
40
40
40
40
00
00
00
F0
F0
F0
F0
ENDCHAR
STARTCHAR quotedbl
ENCODING 34
SWIDTH 426 0
DWIDTH 15 0
BBX 7 10 4 16
BITMAP
C6
C6
C6
C6
C6
C6
C6
C6
C6
C6
ENDCHAR
STARTCHAR numbersign
ENCODING 35
SWIDTH 556 0
DWIDTH 20 0
BBX 18 25 1 0
BITMAP
038700
030600
030600
030600
030600
070E00
070E00
070E00
7FFFC0
7FFFC0
060C00
060C00
0E1C00
0E1C00
0E1C00
FFFF80
FFFF80
0C1800
0C3800
1C3800
1C3800
1C3800
183000
183000
183000
ENDCHAR
STARTCHAR dollar
ENCODING 36
SWIDTH 556 0
DWIDTH 20 0
BBX 18 33 1 -4
BITMAP
00C000
00C000
01C000
07F800
1FFC00
3FFE00
3CCF00
78C700
70C380
70C380
70C000
70C000
78C000
3EC000
3FC000
0FF800
03FE00
00FF00
00CF80
00C3C0
00C1C0
E0C1C0
E0C1C0
E0C1C0
70C1C0
78C380
3CCF80
3FFF00
0FFE00
03F000
00C000
00C000
00C000
ENDCHAR
STARTCHAR percent
ENCODING 37
SWIDTH 1000 0
DWIDTH 36 0
BBX 30 27 3 -1
BITMAP
0F8001C0
3FC00380
78E00780
70E00700
E0700E00
E0701C00
E0701C00
E0703800
E0707000
E070E000
E070E000
70E1C000
71E387E0
3FC78FF0
1F071C38
000E1C38
001C381C
003C381C
0038381C
0070381C
00E0381C
00E0381C
01C01C38
03801C38
07800FF0
070007E0
0E000000
ENDCHAR
STARTCHAR ampersand
ENCODING 38
SWIDTH 630 0
DWIDTH 23 0
BBX 22 27 1 -1
BITMAP
03F000
07F800
0FFC00
1E1E00
1C0E00
1C0E00
1C0E00
1E0E00
0E1C00
0F3C00
07F800
03E000
07C000
1FE000
3CF0E0
7879C0
703DC0
E03DC0
E01FC0
E00F80
E00780
E007C0
F00FC0
7C3FE0
3FFCF0
1FF878
07E03C
ENDCHAR
STARTCHAR quotesingle
ENCODING 39
SWIDTH 278 0
DWIDTH 10 0
BBX 2 10 4 16
BITMAP
C0
C0
C0
C0
C0
C0
C0
C0
C0
C0
ENDCHAR
STARTCHAR parenleft
ENCODING 40
SWIDTH 259 0
DWIDTH 9 0
BBX 8 33 2 -7
BITMAP
07
0E
0C
1C
18
38
38
70
70
70
60
E0
E0
E0
E0
E0
E0
E0
E0
E0
E0
E0
70
70
70
30
38
38
18
1C
0C
0E
07
ENDCHAR
STARTCHAR parenright
ENCODING 41
SWIDTH 259 0
DWIDTH 10 0
BBX 8 33 0 -7
BITMAP
E0
70
30
38
18
1C
1C
0C
0E
0E
0E
06
07
07
07
07
07
07
07
07
07
07
0E
0E
0E
0E
1C
1C
18
38
30
70
E0
ENDCHAR
STARTCHAR asterisk
ENCODING 42
SWIDTH 352 0
DWIDTH 13 0
BBX 11 10 1 16
BITMAP
0C00
0C00
0C00
EDC0
FFE0
1E00
1E00
3300
7380
2100
ENDCHAR
STARTCHAR plus
ENCODING 43
SWIDTH 600 0
DWIDTH 22 0
BBX 18 18 2 0
BITMAP
00C000
00C000
00C000
00C000
00C000
00C000
00C000
00C000
FFFFC0
FFFFC0
00C000
00C000
00C000
00C000
00C000
00C000
00C000
00C000
ENDCHAR
STARTCHAR comma
ENCODING 44
SWIDTH 278 0
DWIDTH 10 0
BBX 4 9 3 -5
BITMAP
F0
F0
F0
F0
30
30
60
E0
80
ENDCHAR
STARTCHAR hyphen
ENCODING 45
SWIDTH 389 0
DWIDTH 14 0
BBX 10 3 2 9
BITMAP
FFC0
FFC0
FFC0
ENDCHAR
STARTCHAR period
ENCODING 46
SWIDTH 278 0
DWIDTH 10 0
BBX 4 4 3 0
BITMAP
F0
F0
F0
F0
ENDCHAR
STARTCHAR slash
ENCODING 47
SWIDTH 333 0
DWIDTH 12 0
BBX 14 27 -1 -1
BITMAP
001C
0038
0038
0030
0070
0060
00E0
00E0
00C0
01C0
01C0
0380
0380
0300
0700
0700
0600
0E00
0C00
1C00
1C00
1800
3800
3000
7000
7000
E000
ENDCHAR
STARTCHAR zero
ENCODING 48
SWIDTH 556 0
DWIDTH 20 0
BBX 16 27 2 -1
BITMAP
07E0
1FF8
3FFC
3C3C
781E
700E
700E
E007
E007
E007
E007
E007
E007
E007
E007
E007
E007
E007
E007
E007
700E
700E
781E
3C3C
3FFC
1FF8
07E0
ENDCHAR
STARTCHAR one
ENCODING 49
SWIDTH 556 0
DWIDTH 20 0
BBX 10 26 3 0
BITMAP
00C0
01C0
01C0
03C0
0FC0
FFC0
FFC0
01C0
01C0
01C0
01C0
01C0
01C0
01C0
01C0
01C0
01C0
01C0
01C0
01C0
01C0
01C0
01C0
01C0
01C0
01C0
ENDCHAR
STARTCHAR two
ENCODING 50
SWIDTH 556 0
DWIDTH 20 0
BBX 17 26 1 0
BITMAP
03F000
0FFC00
1FFE00
3E1F00
3C0780
780780
700380
700380
700380
000380
000700
000700
000E00
003C00
007800
01F000
03E000
078000
1E0000
1C0000
380000
700000
700000
7FFF80
FFFF80
FFFF80
ENDCHAR
STARTCHAR three
ENCODING 51
SWIDTH 556 0
DWIDTH 20 0
BBX 17 27 1 -1
BITMAP
03F000
0FFC00
1FFE00
3C1E00
380F00
780700
700700
700700
700700
000700
000E00
003C00
01F800
01FC00
001E00
000700
000780
000380
E00380
E00380
E00380
F00780
780F00
7C1F00
3FFE00
1FFC00
07F000
ENDCHAR
STARTCHAR four
ENCODING 52
SWIDTH 556 0
DWIDTH 20 0
BBX 17 26 1 0
BITMAP
001C00
003C00
003C00
007C00
00FC00
00DC00
01DC00
039C00
031C00
071C00
0E1C00
0C1C00
181C00
381C00
301C00
601C00
E01C00
FFFF80
FFFF80
FFFF80
001C00
001C00
001C00
001C00
001C00
001C00
ENDCHAR
STARTCHAR five
ENCODING 53
SWIDTH 556 0
DWIDTH 20 0
BBX 17 26 1 -1
BITMAP
1FFF00
1FFF00
1FFF00
380000
380000
380000
380000
300000
73F000
77FC00
7FFE00
7C1F00
700F00
000700
000380
000380
000380
000380
E00380
E00380
F00700
700F00
7C1E00
3FFE00
1FF800
07E000
ENDCHAR
STARTCHAR six
ENCODING 54
SWIDTH 556 0
DWIDTH 20 0
BBX 18 27 1 -1
BITMAP
03F000
0FFC00
1FFE00
3E1F00
380F00
780700
700700
700080
600000
E1F800
E7FE00
EFFF00
FE0F80
FC0780
F80380
F001C0
F001C0
F001C0
F001C0
F001C0
7001C0
780380
7C0780
3E0F00
1FFF00
0FFC00
03F800
ENDCHAR
STARTCHAR seven
ENCODING 55
SWIDTH 556 0
DWIDTH 20 0
BBX 16 25 2 0
BITMAP
FFFF
FFFF
FFFF
000E
001C
0038
0038
0070
00E0
00E0
01C0
01C0
0380
0380
0700
0700
0700
0E00
0E00
0E00
0E00
1C00
1C00
1C00
1C00
ENDCHAR
STARTCHAR eight
ENCODING 56
SWIDTH 556 0
DWIDTH 19 0
BBX 16 27 2 -1
BITMAP
07E0
1FF8
3FFC
3C3C
781E
700E
700E
700E
700E
381C
3C3C
1FF8
0FF0
3FFC
7C3E
700E
F00F
E007
E007
E007
E007
F00F
700E
7C3E
3FFC
1FF8
07E0
ENDCHAR
STARTCHAR nine
ENCODING 57
SWIDTH 556 0
DWIDTH 21 0
BBX 18 27 1 -1
BITMAP
03F000
0FFC00
3FFE00
7C1F00
700F80
F00780
E00380
E003C0
E003C0
E003C0
E003C0
F007C0
780FC0
7C1FC0
3FFDC0
1FF9C0
07E1C0
0001C0
0003C0
000380
780380
380780
3C0700
3E1F00
1FFE00
0FFC00
03F000
ENDCHAR
STARTCHAR colon
ENCODING 58
SWIDTH 278 0
DWIDTH 10 0
BBX 4 19 3 0
BITMAP
F0
F0
F0
F0
00
00
00
00
00
00
00
00
00
00
00
F0
F0
F0
F0
ENDCHAR
STARTCHAR semicolon
ENCODING 59
SWIDTH 278 0
DWIDTH 10 0
BBX 4 24 3 -5
BITMAP
F0
F0
F0
F0
00
00
00
00
00
00
00
00
00
00
00
F0
F0
F0
F0
30
30
60
E0
80
ENDCHAR
STARTCHAR less
ENCODING 60
SWIDTH 600 0
DWIDTH 22 0
BBX 18 19 2 0
BITMAP
000040
0001C0
000FC0
003F00
00FC00
03E000
0F8000
3E0000
F80000
E00000
F80000
7E0000
0F8000
03E000
00F800
003F00
000FC0
0001C0
000040
ENDCHAR
STARTCHAR equal
ENCODING 61
SWIDTH 600 0
DWIDTH 22 0
BBX 18 10 2 4
BITMAP
FFFFC0
FFFFC0
000000
000000
000000
000000
000000
000000
FFFFC0
FFFFC0
ENDCHAR
STARTCHAR greater
ENCODING 62
SWIDTH 600 0
DWIDTH 22 0
BBX 18 19 2 0
BITMAP
800000
E00000
F80000
3E0000
0F8000
03F000
00FC00
001F00
0007C0
0001C0
0007C0
001F00
00FC00
03F000
0FC000
3E0000
F80000
E00000
800000
ENDCHAR
STARTCHAR question
ENCODING 63
SWIDTH 556 0
DWIDTH 20 0
BBX 16 26 2 0
BITMAP
07E0
1FF8
3FFC
3C1E
780E
7007
E007
E007
E007
0007
000E
001E
003C
0078
00F0
00E0
01E0
01C0
01C0
01C0
0000
0000
03C0
03C0
03C0
03C0
ENDCHAR
STARTCHAR at
ENCODING 64
SWIDTH 800 0
DWIDTH 29 0
BBX 25 27 2 -1
BITMAP
007F8000
01FFE000
07C0F800
0F001C00
1C000E00
18000700
301E0300
707FB300
60F1F180
61E0E180
C3C06180
C3806180
C7804180
C700C180
C700C300
C7018300
C7018600
67038E00
63879C00
73FDF800
30F1E300
18000600
1C000E00
0F003C00
07C0F800
01FFE000
003F8000
ENDCHAR
STARTCHAR A
ENCODING 65
SWIDTH 648 0
DWIDTH 23 0
BBX 24 26 0 0
BITMAP
003C00
007C00
007E00
00EE00
00EE00
00E700
01C700
01C700
01C380
038380
0383C0
0781C0
0701C0
0701E0
0E00E0
0FFFF0
1FFFF0
1FFFF0
1C0078
3C0038
38003C
38003C
78001C
70001E
F0001E
E0000F
ENDCHAR
STARTCHAR B
ENCODING 66
SWIDTH 685 0
DWIDTH 25 0
BBX 20 26 3 0
BITMAP
FFFE00
FFFF80
FFFFC0
E003C0
E001E0
E000E0
E000E0
E000E0
E000E0
E001C0
E00380
FFFF00
FFFF00
FFFFC0
E003E0
E000E0
E00070
E00070
E00070
E00070
E00070
E000E0
E003E0
FFFFC0
FFFF80
FFFE00
ENDCHAR
STARTCHAR C
ENCODING 67
SWIDTH 722 0
DWIDTH 26 0
BBX 23 27 2 -1
BITMAP
00FE00
03FFC0
0FFFE0
1F81F0
3E0078
3C0038
78003C
70001C
700000
E00000
E00000
E00000
E00000
E00000
E00000
E00000
E00000
F0001E
70001C
70001C
78003C
3C0078
3E00F8
1F81F0
0FFFE0
07FFC0
00FE00
ENDCHAR
STARTCHAR D
ENCODING 68
SWIDTH 704 0
DWIDTH 25 0
BBX 21 26 3 0
BITMAP
FFF800
FFFF00
FFFF80
E007C0
E001E0
E000F0
E00070
E00070
E00078
E00038
E00038
E00038
E00038
E00038
E00038
E00038
E00038
E00070
E00070
E000F0
E000E0
E003E0
E00FC0
FFFF80
FFFF00
FFF800
ENDCHAR
STARTCHAR E
ENCODING 69
SWIDTH 611 0
DWIDTH 22 0
BBX 17 26 3 0
BITMAP
FFFF80
FFFF80
FFFF80
E00000
E00000
E00000
E00000
E00000
E00000
E00000
E00000
FFFF00
FFFF00
FFFF00
E00000
E00000
E00000
E00000
E00000
E00000
E00000
E00000
E00000
FFFF80
FFFF80
FFFF80
ENDCHAR
STARTCHAR F
ENCODING 70
SWIDTH 574 0
DWIDTH 21 0
BBX 16 26 3 0
BITMAP
FFFF
FFFF
FFFF
E000
E000
E000
E000
E000
E000
E000
E000
FFFE
FFFE
FFFE
E000
E000
E000
E000
E000
E000
E000
E000
E000
E000
E000
E000
ENDCHAR
STARTCHAR G
ENCODING 71
SWIDTH 759 0
DWIDTH 27 0
BBX 23 27 2 -1
BITMAP
00FF00
03FFC0
07FFF0
0F81F8
1E0078
3C003C
38001C
70001E
70000E
700000
E00000
E00000
E00FFE
E00FFE
E00FFE
E0000E
E0000E
F0000E
70000E
70001E
78001E
3C003E
1E007E
0F81FE
07FFEE
03FF86
00FE00
ENDCHAR
STARTCHAR H
ENCODING 72
SWIDTH 722 0
DWIDTH 26 0
BBX 20 26 3 0
BITMAP
E00070
E00070
E00070
E00070
E00070
E00070
E00070
E00070
E00070
E00070
E00070
FFFFF0
FFFFF0
FFFFF0
E00070
E00070
E00070
E00070
E00070
E00070
E00070
E00070
E00070
E00070
E00070
E00070
ENDCHAR
STARTCHAR I
ENCODING 73
SWIDTH 259 0
DWIDTH 9 0
BBX 3 26 3 0
BITMAP
E0
E0
E0
E0
E0
E0
E0
E0
E0
E0
E0
E0
E0
E0
E0
E0
E0
E0
E0
E0
E0
E0
E0
E0
E0
E0
ENDCHAR
STARTCHAR J
ENCODING 74
SWIDTH 519 0
DWIDTH 19 0
BBX 15 27 1 -1
BITMAP
000E
000E
000E
000E
000E
000E
000E
000E
000E
000E
000E
000E
000E
000E
000E
000E
000E
000E
E00E
E00E
E00E
E00E
F01E
783C
7FFC
3FF8
0FE0
ENDCHAR
STARTCHAR K
ENCODING 75
SWIDTH 667 0
DWIDTH 24 0
BBX 21 26 3 0
BITMAP
E000F0
E001E0
E003C0
E00780
E00F00
E01E00
E03C00
E0F800
E1F000
E3E000
E7C000
EFC000
FFE000
FEF000
FCF800
F87800
F03C00
E03E00
E01E00
E00F00
E00780
E007C0
E003C0
E001E0
E001F0
E000F8
ENDCHAR
STARTCHAR L
ENCODING 76
SWIDTH 556 0
DWIDTH 20 0
BBX 17 26 3 0
BITMAP
E00000
E00000
E00000
E00000
E00000
E00000
E00000
E00000
E00000
E00000
E00000
E00000
E00000
E00000
E00000
E00000
E00000
E00000
E00000
E00000
E00000
E00000
E00000
FFFF80
FFFF80
FFFF80
ENDCHAR
STARTCHAR M
ENCODING 77
SWIDTH 871 0
DWIDTH 31 0
BBX 25 26 3 0
BITMAP
F8000F80
F8000F80
F8000F80
FC001F80
FC001F80
FE003F80
EE003B80
EE003B80
E7007380
E7007380
E7007380
E380E380
E380E380
E380E380
E1C1C380
E1C1C380
E0E38380
E0E38380
E0E38380
E0770380
E0770380
E0770380
E03E0380
E03E0380
E03E0380
E01C0380
ENDCHAR
STARTCHAR N
ENCODING 78
SWIDTH 722 0
DWIDTH 26 0
BBX 20 26 3 0
BITMAP
F00070
F80070
F80070
FC0070
FC0070
FE0070
EF0070
E70070
E78070
E3C070
E3C070
E1E070
E0F070
E0F070
E07870
E03870
E03C70
E01E70
E00E70
E00F70
E007F0
E007F0
E003F0
E001F0
E001F0
E000F0
ENDCHAR
STARTCHAR O
ENCODING 79
SWIDTH 760 0
DWIDTH 27 0
BBX 25 27 1 -1
BITMAP
007F0000
03FFE000
07FFF000
0F80F800
1E003C00
3C001E00
38000E00
70000700
70000700
F0000780
E0000380
E0000380
E0000380
E0000380
E0000380
E0000380
E0000380
F0000780
70000700
70000700
38000E00
3C001E00
1E003C00
0F80F800
07FFF000
03FFE000
007F0000
ENDCHAR
STARTCHAR P
ENCODING 80
SWIDTH 648 0
DWIDTH 23 0
BBX 19 26 3 0
BITMAP
FFFC00
FFFF00
FFFF80
E007C0
E001C0
E001E0
E000E0
E000E0
E000E0
E000E0
E001E0
E001C0
E007C0
FFFF80
FFFF00
FFFC00
E00000
E00000
E00000
E00000
E00000
E00000
E00000
E00000
E00000
E00000
ENDCHAR
STARTCHAR Q
ENCODING 81
SWIDTH 760 0
DWIDTH 27 0
BBX 25 28 1 -2
BITMAP
007F0000
03FFE000
07FFF000
0F80F800
1E003C00
3C001E00
38000E00
70000700
70000700
F0000780
E0000380
E0000380
E0000380
E0000380
E0000380
E0000380
E0000380
F0000700
70000700
70010F00
38038E00
3C07FE00
1E01FC00
0F81F800
07FFFE00
03FFFF00
007F0F00
00000200
ENDCHAR
STARTCHAR R
ENCODING 82
SWIDTH 685 0
DWIDTH 25 0
BBX 21 26 3 0
BITMAP
FFFF00
FFFF80
FFFFE0
E001E0
E000F0
E00070
E00070
E00070
E00070
E00070
E000E0
E003E0
FFFFC0
FFFF00
FFFFC0
E003C0
E001E0
E000E0
E000E0
E000E0
E000E0
E000F0
E000F0
E000F0
E000F0
E00078
ENDCHAR
STARTCHAR S
ENCODING 83
SWIDTH 648 0
DWIDTH 23 0
BBX 21 27 1 -1
BITMAP
03FC00
0FFF00
1FFF80
3E07C0
3803E0
7001E0
7000E0
7000E0
700000
780000
3E0000
1FC000
0FFE00
03FF80
003FE0
0003F0
000070
000078
E00038
E00038
F00038
700078
780070
3F01F0
1FFFE0
0FFF80
01FE00
ENDCHAR
STARTCHAR T
ENCODING 84
SWIDTH 574 0
DWIDTH 21 0
BBX 21 26 0 0
BITMAP
FFFFF8
FFFFF8
FFFFF8
007000
007000
007000
007000
007000
007000
007000
007000
007000
007000
007000
007000
007000
007000
007000
007000
007000
007000
007000
007000
007000
007000
007000
ENDCHAR
STARTCHAR U
ENCODING 85
SWIDTH 722 0
DWIDTH 26 0
BBX 20 27 3 -1
BITMAP
E00070
E00070
E00070
E00070
E00070
E00070
E00070
E00070
E00070
E00070
E00070
E00070
E00070
E00070
E00070
E00070
E00070
E00070
E00070
E00070
F000F0
7000E0
7801E0
3E07C0
1FFF80
0FFF00
03FC00
ENDCHAR
STARTCHAR V
ENCODING 86
SWIDTH 611 0
DWIDTH 22 0
BBX 22 26 0 0
BITMAP
F0003C
70003C
780038
780078
380070
380070
3C00F0
1C00E0
1C00E0
1E01E0
0E01C0
0E01C0
0F03C0
070380
070380
078780
038700
038700
03CF00
01CE00
01CE00
01FE00
00FC00
00FC00
00F800
007800
ENDCHAR
STARTCHAR W
ENCODING 87
SWIDTH 926 0
DWIDTH 33 0
BBX 33 26 0 0
BITMAP
F001E00780
7003E00780
7803E00700
7803E00700
3803700F00
3807700E00
3807700E00
3C07700E00
1C06381E00
1C0E381C00
1C0E381C00
1E0E1C1C00
0E1C1C3C00
0E1C1C3800
0E1C1C3800
0F180E3800
07380E7800
07380E7000
07380E7000
0730077000
03F0076000
03F007E000
03F003E000
03E003E000
01E003C000
01E003C000
ENDCHAR
STARTCHAR X
ENCODING 88
SWIDTH 611 0
DWIDTH 22 0
BBX 22 26 0 0
BITMAP
F80078
7C0070
3C00F0
1E01E0
1E01C0
0F03C0
078780
078700
03CF00
01FE00
01FC00
00FC00
007800
00FC00
00FC00
01FE00
03CF00
038F00
078780
0F03C0
0E03C0
1E01E0
3C00F0
3800F0
780078
F0003C
ENDCHAR
STARTCHAR Y
ENCODING 89
SWIDTH 648 0
DWIDTH 23 0
BBX 23 26 0 0
BITMAP
F0001E
78003C
3C0078
3C0078
1E00F0
0E00E0
0F01E0
0781C0
038380
03C780
01C700
01EE00
00FE00
007C00
007C00
003800
003800
003800
003800
003800
003800
003800
003800
003800
003800
003800
ENDCHAR
STARTCHAR Z
ENCODING 90
SWIDTH 611 0
DWIDTH 22 0
BBX 20 26 1 0
BITMAP
7FFFF0
7FFFF0
7FFFF0
0001E0
0001E0
0003C0
000780
000F00
001E00
001E00
003C00
007800
00F000
01E000
01E000
03C000
078000
0F0000
1E0000
1E0000
3C0000
780000
F00000
FFFFF0
FFFFF0
FFFFF0
ENDCHAR
STARTCHAR bracketleft
ENCODING 91
SWIDTH 259 0
DWIDTH 9 0
BBX 7 33 3 -7
BITMAP
FE
FE
E0
E0
E0
E0
E0
E0
E0
E0
E0
E0
E0
E0
E0
E0
E0
E0
E0
E0
E0
E0
E0
E0
E0
E0
E0
E0
E0
E0
E0
FE
FE
ENDCHAR
STARTCHAR backslash
ENCODING 92
SWIDTH 333 0
DWIDTH 12 0
BBX 14 27 -1 -1
BITMAP
E000
7000
7000
3000
3800
1800
1C00
1C00
0C00
0E00
0600
0700
0700
0300
0380
0380
01C0
01C0
00C0
00E0
00E0
0060
0070
0030
0038
0038
001C
ENDCHAR
STARTCHAR bracketright
ENCODING 93
SWIDTH 259 0
DWIDTH 9 0
BBX 7 33 0 -7
BITMAP
FE
FE
0E
0E
0E
0E
0E
0E
0E
0E
0E
0E
0E
0E
0E
0E
0E
0E
0E
0E
0E
0E
0E
0E
0E
0E
0E
0E
0E
0E
0E
FE
FE
ENDCHAR
STARTCHAR asciicircum
ENCODING 94
SWIDTH 600 0
DWIDTH 22 0
BBX 18 15 2 10
BITMAP
01C000
01E000
03E000
037000
073000
063800
0E1800
0C1C00
1C0C00
180E00
380600
300700
700380
600380
E001C0
ENDCHAR
STARTCHAR underscore
ENCODING 95
SWIDTH 500 0
DWIDTH 18 0
BBX 18 2 0 -5
BITMAP
FFFFC0
FFFFC0
ENDCHAR
STARTCHAR grave
ENCODING 96
SWIDTH 222 0
DWIDTH 8 0
BBX 7 5 -1 21
BITMAP
F0
38
1C
1C
0E
ENDCHAR
STARTCHAR a
ENCODING 97
SWIDTH 537 0
DWIDTH 19 0
BBX 18 20 1 -1
BITMAP
07F800
1FFE00
3FFE00
3C1F00
700700
700700
000700
000F00
007F00
0FFF00
3FC700
780700
F00700
E00700
E00F00
E00F00
F03F00
7FFFC0
7FF7C0
1FC3C0
ENDCHAR
STARTCHAR b
ENCODING 98
SWIDTH 593 0
DWIDTH 21 0
BBX 18 27 2 -1
BITMAP
E00000
E00000
E00000
E00000
E00000
E00000
E00000
E3F000
EFFC00
FFFE00
FE1F00
F80780
F00380
F003C0
E001C0
E001C0
E001C0
E001C0
E001C0
E001C0
F003C0
F00380
F80780
FE0F00
FFFE00
EFFC00
E3F000
ENDCHAR
STARTCHAR c
ENCODING 99
SWIDTH 537 0
DWIDTH 19 0
BBX 17 20 1 -1
BITMAP
07F000
1FFC00
3FFE00
3C1F00
780700
700780
F00000
E00000
E00000
E00000
E00000
E00000
E00000
F00780
700700
780F00
7C1E00
3FFE00
1FFC00
07F000
ENDCHAR
STARTCHAR d
ENCODING 100
SWIDTH 593 0
DWIDTH 21 0
BBX 18 27 1 -1
BITMAP
0001C0
0001C0
0001C0
0001C0
0001C0
0001C0
0001C0
03F1C0
0FFDC0
1FFFC0
3C1FC0
7807C0
7003C0
F003C0
E001C0
E001C0
E001C0
E001C0
E001C0
E001C0
F003C0
7003C0
7807C0
3E1FC0
1FFFC0
0FFDC0
03F1C0
ENDCHAR
STARTCHAR e
ENCODING 101
SWIDTH 537 0
DWIDTH 19 0
BBX 17 20 1 -1
BITMAP
03F000
0FF800
1FFC00
3C1E00
780F00
700700
E00380
E00380
FFFF80
FFFF80
FFFF80
E00000
E00000
E00000
700380
780780
3C0F00
1FFE00
0FFC00
03F000
ENDCHAR
STARTCHAR f
ENCODING 102
SWIDTH 296 0
DWIDTH 11 0
BBX 10 26 1 0
BITMAP
07C0
0FC0
1FC0
1C00
1C00
1C00
1C00
FFC0
FFC0
FFC0
1C00
1C00
1C00
1C00
1C00
1C00
1C00
1C00
1C00
1C00
1C00
1C00
1C00
1C00
1C00
1C00
ENDCHAR
STARTCHAR g
ENCODING 103
SWIDTH 574 0
DWIDTH 20 0
BBX 17 26 1 -7
BITMAP
07E380
0FFB80
3FFF80
3C1F80
780F80
700780
E00380
E00380
E00380
E00380
E00380
E00380
E00780
700780
780F80
3C1F80
3FFB80
1FFB80
07E380
000380
000780
700700
780F00
3C1E00
1FFC00
07F000
ENDCHAR
STARTCHAR h
ENCODING 104
SWIDTH 556 0
DWIDTH 20 0
BBX 16 26 2 0
BITMAP
E000
E000
E000
E000
E000
E000
E000
E3F0
EFFC
FFFE
FC1F
F80F
F007
E007
E007
E007
E007
E007
E007
E007
E007
E007
E007
E007
E007
E007
ENDCHAR
STARTCHAR i
ENCODING 105
SWIDTH 222 0
DWIDTH 8 0
BBX 3 26 3 0
BITMAP
E0
E0
E0
E0
00
00
00
E0
E0
E0
E0
E0
E0
E0
E0
E0
E0
E0
E0
E0
E0
E0
E0
E0
E0
E0
ENDCHAR
STARTCHAR j
ENCODING 106
SWIDTH 222 0
DWIDTH 8 0
BBX 6 33 0 -7
BITMAP
1C
1C
1C
1C
00
00
00
1C
1C
1C
1C
1C
1C
1C
1C
1C
1C
1C
1C
1C
1C
1C
1C
1C
1C
1C
1C
1C
1C
1C
FC
F8
F0
ENDCHAR
STARTCHAR k
ENCODING 107
SWIDTH 519 0
DWIDTH 19 0
BBX 16 26 3 0
BITMAP
E000
E000
E000
E000
E000
E000
E000
E01F
E03C
E078
E0F0
E1E0
E3C0
E780
EF80
FF80
FFC0
F9E0
E1E0
E0F0
E078
E078
E03C
E01E
E01E
E00F
ENDCHAR
STARTCHAR l
ENCODING 108
SWIDTH 222 0
DWIDTH 8 0
BBX 3 26 3 0
BITMAP
E0
E0
E0
E0
E0
E0
E0
E0
E0
E0
E0
E0
E0
E0
E0
E0
E0
E0
E0
E0
E0
E0
E0
E0
E0
E0
ENDCHAR
STARTCHAR m
ENCODING 109
SWIDTH 853 0
DWIDTH 29 0
BBX 25 19 2 0
BITMAP
E3E07C00
EFF9FF00
FFFBFF00
FC3F0780
F01E0380
F01C0380
E01C0380
E01C0380
E01C0380
E01C0380
E01C0380
E01C0380
E01C0380
E01C0380
E01C0380
E01C0380
E01C0380
E01C0380
E01C0380
ENDCHAR
STARTCHAR n
ENCODING 110
SWIDTH 556 0
DWIDTH 20 0
BBX 16 19 2 0
BITMAP
E3F8
E7FC
EFFE
FC1F
F80F
F007
E007
E007
E007
E007
E007
E007
E007
E007
E007
E007
E007
E007
E007
ENDCHAR
STARTCHAR o
ENCODING 111
SWIDTH 574 0
DWIDTH 21 0
BBX 19 20 1 -1
BITMAP
03F800
0FFE00
1FFF00
3E0F80
7803C0
7001C0
F001E0
E000E0
E000E0
E000E0
E000E0
E000E0
E000E0
F001E0
7001C0
7803C0
3E0F80
1FFF00
0FFE00
03F800
ENDCHAR
STARTCHAR p
ENCODING 112
SWIDTH 593 0
DWIDTH 21 0
BBX 18 26 2 -7
BITMAP
E3F000
EFFC00
FFFE00
FE1F00
F80780
F00380
F003C0
E001C0
E001C0
E001C0
E001C0
E001C0
E001C0
F003C0
F00380
F80780
FE0F00
FFFE00
EFFC00
E3F000
E00000
E00000
E00000
E00000
E00000
E00000
ENDCHAR
STARTCHAR q
ENCODING 113
SWIDTH 593 0
DWIDTH 21 0
BBX 18 26 1 -7
BITMAP
03F1C0
0FFDC0
1FFFC0
3C1FC0
7807C0
7003C0
F003C0
E001C0
E001C0
E001C0
E001C0
E001C0
E001C0
F003C0
7003C0
7807C0
3E1FC0
1FFFC0
0FFDC0
03F1C0
0001C0
0001C0
0001C0
0001C0
0001C0
0001C0
ENDCHAR
STARTCHAR r
ENCODING 114
SWIDTH 333 0
DWIDTH 12 0
BBX 10 19 2 0
BITMAP
E1C0
E7C0
EFC0
FE00
F800
F000
F000
E000
E000
E000
E000
E000
E000
E000
E000
E000
E000
E000
E000
ENDCHAR
STARTCHAR s
ENCODING 115
SWIDTH 500 0
DWIDTH 18 0
BBX 16 20 1 -1
BITMAP
0FE0
3FF8
7FFC
F03C
E01E
E00E
E000
F800
7F80
1FF0
03FC
003E
000F
0007
E007
F007
781F
7FFE
3FFC
0FF0
ENDCHAR
STARTCHAR t
ENCODING 116
SWIDTH 315 0
DWIDTH 11 0
BBX 10 24 1 0
BITMAP
1C00
1C00
1C00
1C00
1C00
FFC0
FFC0
FFC0
1C00
1C00
1C00
1C00
1C00
1C00
1C00
1C00
1C00
1C00
1C00
1C00
3C00
1FC0
1FC0
0FC0
ENDCHAR
STARTCHAR u
ENCODING 117
SWIDTH 556 0
DWIDTH 20 0
BBX 16 20 2 -1
BITMAP
E007
E007
E007
E007
E007
E007
E007
E007
E007
E007
E007
E007
E007
E007
E00F
F01F
783F
7FF7
3FE7
1FC7
ENDCHAR
STARTCHAR v
ENCODING 118
SWIDTH 500 0
DWIDTH 18 0
BBX 18 19 0 0
BITMAP
F003C0
700380
780780
380700
380700
3C0700
1C0E00
1C0E00
0E0C00
0E1C00
0E1C00
071800
073800
073800
03B000
03F000
01F000
01E000
01E000
ENDCHAR
STARTCHAR w
ENCODING 119
SWIDTH 758 0
DWIDTH 27 0
BBX 26 19 1 0
BITMAP
E01E03C0
E01E0380
F03E0380
703E0380
70370700
70370700
38770700
38730E00
38738E00
1C638E00
1CE38C00
1CE19C00
0CE1DC00
0EC1D800
0EC1D800
0FC0F800
07C0F800
0780F000
0780F000
ENDCHAR
STARTCHAR x
ENCODING 120
SWIDTH 518 0
DWIDTH 19 0
BBX 18 19 0 0
BITMAP
7803C0
3C0700
1C0F00
1E1E00
0F1C00
073C00
07F800
03F000
01E000
01F000
03F000
03F800
073C00
0F1C00
1E1E00
1C0F00
3C0780
780780
F003C0
ENDCHAR
STARTCHAR y
ENCODING 121
SWIDTH 500 0
DWIDTH 18 0
BBX 18 26 0 -7
BITMAP
F003C0
700380
780380
380700
380700
3C0700
1C0E00
1C0E00
0E0C00
0E1C00
0F1C00
071800
073800
03B800
03F000
03F000
01E000
01E000
00E000
01C000
01C000
038000
038000
3F0000
3F0000
3C0000
ENDCHAR
STARTCHAR z
ENCODING 122
SWIDTH 480 0
DWIDTH 17 0
BBX 15 19 1 0
BITMAP
7FFE
7FFE
7FFE
001C
0038
0070
00E0
01E0
01C0
0380
0700
0E00
1C00
3C00
3800
7000
FFFE
FFFE
FFFE
ENDCHAR
STARTCHAR braceleft
ENCODING 123
SWIDTH 333 0
DWIDTH 12 0
BBX 9 33 2 -7
BITMAP
0780
0F80
1E00
1C00
1C00
1C00
1C00
1C00
1C00
1C00
1C00
1C00
1C00
3C00
3800
F000
E000
F800
3800
3C00
1C00
1C00
1C00
1C00
1C00
1C00
1C00
1C00
1C00
1C00
1E00
0F80
0780
ENDCHAR
STARTCHAR bar
ENCODING 124
SWIDTH 222 0
DWIDTH 8 0
BBX 2 36 3 -8
BITMAP
C0
C0
C0
C0
C0
C0
C0
C0
C0
C0
C0
C0
C0
C0
C0
C0
C0
C0
C0
C0
C0
C0
C0
C0
C0
C0
C0
C0
C0
C0
C0
C0
C0
C0
C0
C0
ENDCHAR
STARTCHAR braceright
ENCODING 125
SWIDTH 333 0
DWIDTH 12 0
BBX 9 33 1 -7
BITMAP
F000
F800
3C00
1C00
1C00
1C00
1C00
1C00
1C00
1C00
1C00
1C00
1C00
1E00
0E00
0F80
0380
0780
0E00
1E00
1C00
1C00
1C00
1C00
1C00
1C00
1C00
1C00
1C00
1C00
3C00
F800
F000
ENDCHAR
STARTCHAR asciitilde
ENCODING 126
SWIDTH 600 0
DWIDTH 22 0
BBX 17 5 2 6
BITMAP
1F0100
3FE380
61FF00
E03E00
400000
ENDCHAR
ENDFONT
